<?xml version="1.0" standalone="no"?>
<!DOCTYPE svg PUBLIC "-//W3C//DTD SVG 20010904//EN"
 "http://www.w3.org/TR/2001/REC-SVG-20010904/DTD/svg10.dtd">
<svg version="1.0" xmlns="http://www.w3.org/2000/svg"
 width="117.000000pt" height="117.000000pt" viewBox="0 0 117.000000 117.000000"
 preserveAspectRatio="xMidYMid meet">

<g transform="translate(0.000000,117.000000) scale(0.100000,-0.100000)"
fill="#000000" stroke="none">
<path d="M170 625 l0 -375 55 0 55 0 0 325 0 325 75 0 75 0 0 -115 0 -115 -60
0 -60 0 0 -37 c1 -23 29 -108 69 -208 l69 -170 56 -3 56 -3 -34 93 c-19 51
-48 130 -64 176 l-31 82 32 0 c18 0 43 7 55 16 21 15 22 21 22 183 0 150 -2
170 -18 184 -16 14 -44 17 -185 17 l-167 0 0 -375z"/>
<path d="M630 625 l0 -375 55 0 55 0 0 325 0 325 75 0 75 0 0 -115 0 -115 -60
0 -60 0 0 -37 c1 -23 29 -108 69 -208 l69 -170 56 -3 56 -3 -34 93 c-19 51
-48 130 -64 176 l-31 82 32 0 c18 0 43 7 55 16 21 15 22 21 22 183 0 150 -2
170 -18 184 -16 14 -44 17 -185 17 l-167 0 0 -375z"/>
</g>
</svg>
